# Created by Kenney (www.kenney.nl)

mtllib blasterK.mtl

g blasterK

v -0.03 -0.1470997 0.1239092
v 0.03 -0.1470997 0.1239092
v -0.03 -0.04709968 0.09057586
v 0.03 -0.04709968 0.09057586
v -0.015 0.1548266 0.08516449
v -0.015 0.1629003 0.07709076
v 0.015 0.1548266 0.08516449
v 0.015 0.1629003 0.07709076
v -0.015 0.1650573 0.07493377
v 0.015 0.1650573 0.07493377
v 0.015 0.168802 -0.03313996
v -0.015 0.168802 -0.03313996
v 0.015 0.1650573 -0.04711538
v -0.015 0.1650573 -0.04711538
v 0.015 0.168802 0.06095835
v -0.015 0.168802 0.06095835
v 0.015 0.1548266 -0.0573461
v 0.015 0.1629003 -0.04927237
v -0.015 0.1548266 -0.0573461
v -0.015 0.1629003 -0.04927237
v -0.015 0.1408512 -0.0610908
v 0.015 0.1408512 -0.0610908
v -0.015 0.1229003 -0.0610908
v 0.015 0.1229003 -0.0610908
v -0.015 0.1229003 0.0889092
v -0.015 0.1408512 0.0889092
v 0.015 0.1229003 0.0889092
v 0.015 0.1408512 0.0889092
v -0.05 0.04290032 0.05890919
v -0.03 0.04290032 0.05890919
v -0.05 0.08290032 0.05890919
v -0.03 0.08290032 0.05890919
v -0.03 0.08290032 -0.09109081
v -0.05 0.08290032 -0.09109081
v -0.03 0.04290032 -0.09109081
v -0.05 0.04290032 -0.09109081
v 0.05 0.04290032 -0.09109081
v 0.05 0.04290032 0.05890919
v 0.03 0.04290032 -0.09109081
v 0.03 0.04290032 0.05890919
v 0.03 0.08290032 0.05890919
v 0.05 0.08290032 0.05890919
v 0.05 0.08290032 -0.09109081
v 0.03 0.08290032 -0.09109081
v -0.01 0.08290032 -0.2310908
v -0.01 0.06290032 -0.2310908
v -0.01 0.08290032 -0.1310908
v -0.01 0.04290032 -0.2010908
v -0.01 -0.1070997 -0.2010908
v -0.01 -0.1070997 -0.1310908
v 0.01 -0.1070997 -0.2010908
v 0.01 0.04290032 -0.2010908
v 0.01 -0.1070997 -0.1310908
v 0.01 0.08290032 -0.1310908
v 0.01 0.08290032 -0.2310908
v 0.01 0.06290032 -0.2310908
v -0.03 0.002900322 0.07390919
v -0.03 0.002900322 0.1739092
v -0.03 -0.02209968 0.08224253
v -0.03 -0.1262536 0.2169605
v 0.03 -0.02209968 0.08224253
v 0.03 0.002900322 0.07390919
v 0.03 -0.1262536 0.2169605
v 0.03 0.002900322 0.1739092
v 0.03 0.07290033 -0.0810908
v 0.03 0.05290032 -0.0810908
v 0.03 0.07290033 -0.0410908
v 0.03 0.05290032 -0.0410908
v -0.03 0.07290033 -0.0810908
v -0.03 0.07290033 -0.0410908
v -0.03 0.05290032 -0.0810908
v -0.03 0.05290032 -0.0410908
v 0.015 0.1229003 0.06095835
v 0.015 0.1408512 0.06095835
v 0.015 0.1408512 -0.03313996
v 0.015 0.1229003 -0.03313996
v -0.015 0.1229003 0.06095835
v -0.015 0.1408512 0.06095835
v -0.015 0.1408512 -0.03313996
v -0.015 0.1229003 -0.03313996
v 0.02 -0.1370997 -0.1310908
v 0.02 -0.1370997 -0.2010908
v -0.02 -0.1370997 -0.1310908
v -0.02 -0.1370997 -0.2010908
v -0.04 -0.1170997 -0.2010908
v -0.04 0.04290032 -0.2010908
v -0.04 -0.1170997 -0.1310908
v -0.04 0.09290032 -0.1310908
v -0.04 0.09290032 -0.2310908
v -0.04 0.06290032 -0.2310908
v 0.02 0.1129003 -0.2310908
v 0.02 0.1129003 -0.1310908
v -0.02 0.1129003 -0.2310908
v -0.02 0.1129003 -0.1310908
v 0.04 0.09290032 -0.2310908
v 0.04 0.06290032 -0.2310908
v 0.04 0.09290032 -0.1310908
v 0.04 0.04290032 -0.2010908
v 0.04 -0.1170997 -0.2010908
v 0.04 -0.1170997 -0.1310908
v -0.04 0.07290033 -0.0810908
v -0.04 0.07290033 -0.0410908
v -0.05 0.07290033 -0.0610908
v -0.04 0.05290032 -0.0410908
v -0.04 0.05290032 -0.0810908
v -0.05 0.05290032 -0.0610908
v -0.05 0.1029003 0.0889092
v -0.03 0.1229003 0.0889092
v -0.05 0.1029003 0.1989092
v -0.03 0.1229003 0.1989092
v 0.04 0.05290032 -0.0810908
v 0.04 0.07290033 -0.0810908
v 0.04 0.05290032 -0.0410908
v 0.04 0.07290033 -0.0410908
v 0.03 0.1229003 0.0889092
v 0.05 0.1029003 0.0889092
v 0.03 0.1229003 0.1989092
v 0.05 0.1029003 0.1989092
v 0.05 0.05290032 -0.0610908
v 0.05 0.07290033 -0.0610908
v 0.03 0.002900322 -0.001090804
v 0.03 -0.04709968 -0.001090804
v 0.03 0.002900322 0.02390919
v 0.03 -0.02209968 0.02390919
v -0.03 -0.04709968 -0.001090804
v -0.03 -0.02209968 0.02390919
v -0.03 0.002900322 0.02390919
v -0.03 0.002900322 -0.001090804
v -0.05 0.1229003 0.0889092
v 0.05 0.1229003 0.0889092
v 0.05 0.002900322 0.1989092
v 0.05 0.002900322 -0.001090804
v 0.05 0.1229003 -0.1310908
v 0.05 -0.1470997 -0.1310908
v 0.05 -0.1470997 -0.0510908
v 0.05 -0.09709968 -0.001090804
v -0.05 -0.1470997 -0.0510908
v -0.05 -0.09709968 -0.001090804
v -0.05 -0.1470997 -0.1310908
v -0.05 0.1229003 -0.1310908
v -0.05 0.002900322 -0.001090804
v -0.05 0.002900322 0.1989092
v -0.04 -0.168802 0.1185233
v 0.04 -0.168802 0.1185233
v -0.04 -0.1492858 0.1141511
v 0.04 -0.1492858 0.1141511
v -0.04 -0.1435837 0.2310908
v -0.04 -0.1240674 0.2267186
v 0.04 -0.1435837 0.2310908
v 0.04 -0.1240674 0.2267186

vn 0 -0.3162278 -0.9486833
vn 0 0.5 0.8660254
vn 0 0.7071068 0.7071068
vn 0 0.8660254 0.5
vn 0 0.9659258 -0.258819
vn 0 0.8660254 -0.5
vn 0 1 0
vn 0 0.5 -0.8660254
vn 0 0.7071068 -0.7071068
vn 0 0.9659258 0.258819
vn 0 0.258819 -0.9659258
vn 0 0 -1
vn 0 0 1
vn 0 0.258819 0.9659258
vn 0 -1 0
vn 1 0 0
vn -1 0 0
vn 0 0.3162278 0.9486833
vn -0.7071068 -0.7071068 0
vn 0.7071068 -0.7071068 0
vn -0.7071068 0.7071068 0
vn 0.7071068 0.7071068 0
vn 0 -0.8320503 -0.5547002
vn -0.8944272 0 0.4472136
vn -0.8944272 0 -0.4472136
vn 0.8944272 0 0.4472136
vn 0 -0.7071068 0.7071068
vn 0.8944272 0 -0.4472136
vn 0 -0.2186096 -0.9758124
vn 0 0.2186096 0.9758124
vn 0 -0.9758124 0.2186096
vn 0 0.9758124 -0.2186096

vt 1.181102 -7.036793
vt -1.181102 -7.036793
vt 1.181102 -2.886822
vt -1.181102 -2.886822
vt -0.5905512 1.939313
vt -0.5905512 2.388839
vt 0.5905512 1.939313
vt 0.5905512 2.388839
vt -0.5905512 2.508936
vt 0.5905512 2.508936
vt -0.5905512 0.4597811
vt 0.5905512 0.4597811
vt -0.5905512 -0.1098419
vt 0.5905512 -0.1098419
vt -0.5905512 -1.304723
vt -0.5905512 2.399935
vt 0.5905512 -1.304723
vt 0.5905512 2.399935
vt -0.5905512 2.713745
vt -0.5905512 3.163271
vt 0.5905512 2.713745
vt -0.5905512 3.283368
vt 0.5905512 3.283368
vt 0.5905512 3.163271
vt 0.5905512 -0.5981127
vt 0.5905512 -1.167736
vt -0.5905512 -0.5981127
vt -0.5905512 -1.167736
vt 0.5905512 4.733871
vt -0.5905512 4.733871
vt 0.5905512 5.303494
vt -0.5905512 5.303494
vt 0.5905512 4.838595
vt -0.5905512 4.838595
vt 0.5905512 5.545322
vt -0.5905512 5.545322
vt -0.5905512 4.450409
vt -0.5905512 5.020032
vt 0.5905512 4.450409
vt 0.5905512 5.020032
vt 1.968504 1.688989
vt 1.181102 1.688989
vt 1.968504 3.263792
vt 1.181102 3.263792
vt -1.181102 2.31926
vt -1.181102 -3.586252
vt -1.968504 2.31926
vt -1.968504 -3.586252
vt 1.181102 -3.586252
vt 1.181102 2.31926
vt 1.968504 -3.586252
vt 1.968504 2.31926
vt -1.181102 1.688989
vt -1.968504 1.688989
vt -1.181102 3.263792
vt -1.968504 3.263792
vt 9.098063 3.263792
vt 9.098063 2.476391
vt 5.161055 3.263792
vt 7.916961 1.688989
vt 7.916961 -4.216523
vt 5.161055 -4.216523
vt -7.916961 -4.216523
vt -7.916961 1.688989
vt -5.161055 -4.216523
vt -5.161055 3.263792
vt -9.098063 3.263792
vt -9.098063 2.476391
vt -0.3937008 -7.916961
vt -0.3937008 -5.161055
vt 0.3937008 -7.916961
vt 0.3937008 -5.161055
vt 0.3937008 -9.098063
vt -0.3937008 -9.098063
vt 2.909811 0.1141859
vt 6.846819 0.1141859
vt 3.237895 -0.870066
vt 3.565979 -1.854318
vt 4.878315 -5.791326
vt 8.541752 -4.970613
vt 1.181102 -1.849329
vt -1.181102 -1.849329
vt 1.181102 -0.8118367
vt -1.181102 -0.8118367
vt -1.181102 -7.416676
vt -1.181102 -2.056828
vt 1.181102 -7.416676
vt 1.181102 -2.056828
vt 0.3937008 -4.216523
vt -0.3937008 -4.216523
vt 0.3937008 3.263792
vt -0.3937008 3.263792
vt -2.909811 0.1141859
vt -3.237895 -0.870066
vt -6.846819 0.1141859
vt -3.565979 -1.854318
vt -4.878315 -5.791326
vt -8.541752 -4.970613
vt 3.586252 1.688989
vt 3.192551 2.870091
vt 3.586252 3.263792
vt -2.31926 3.263792
vt 3.192551 2.08269
vt 1.617748 2.870091
vt -2.31926 1.688989
vt 1.617748 2.08269
vt 2.31926 3.263792
vt -3.192551 2.870091
vt -3.586252 3.263792
vt -3.586252 1.688989
vt -1.617748 2.870091
vt -3.192551 2.08269
vt -1.617748 2.08269
vt 2.31926 1.688989
vt -3.500362 5.545322
vt -3.352933 6.095535
vt -3.500362 4.838595
vt -3.035069 6.413399
vt -2.950149 6.49832
vt -2.399935 4.838595
vt -2.399935 5.545322
vt -2.399935 6.645749
vt 1.304723 5.545322
vt 1.304723 6.645749
vt 1.304723 4.838595
vt 1.854936 6.49832
vt 1.939857 6.413399
vt 2.25772 6.095535
vt 2.40515 4.838595
vt 2.40515 5.545322
vt 2.399935 4.838595
vt 2.399935 5.545322
vt 3.500362 4.838595
vt 2.399935 6.645749
vt 2.950149 6.49832
vt 3.035069 6.413399
vt 3.352933 6.095535
vt 3.500362 5.545322
vt -1.304723 6.645749
vt -1.304723 5.545322
vt -1.304723 4.838595
vt -1.854936 6.49832
vt -1.939857 6.413399
vt -2.25772 6.095535
vt -2.40515 5.545322
vt -2.40515 4.838595
vt 0.7874016 -5.161055
vt 0.7874016 -7.916961
vt -0.7874016 -5.161055
vt -0.7874016 -7.916961
vt -7.916961 -4.610223
vt -5.161055 -4.610223
vt -5.161055 3.657493
vt -9.098063 3.657493
vt -0.7874016 -9.098063
vt 0.7874016 -9.098063
vt 9.098063 3.657493
vt 5.161055 3.657493
vt 7.916961 -4.610223
vt 5.161055 -4.610223
vt -5.161055 -3.25992
vt -7.916961 -3.25992
vt -5.161055 -2.146366
vt -7.916961 -2.146366
vt 5.161055 -2.146366
vt 7.916961 -2.146366
vt 5.161055 -3.25992
vt 7.916961 -3.25992
vt -9.098063 2.586238
vt -5.161055 2.586238
vt -9.098063 1.472684
vt -5.161055 1.472684
vt 9.098063 1.472684
vt 5.161055 1.472684
vt 9.098063 2.586238
vt 5.161055 2.586238
vt 1.181102 -3.192551
vt 1.181102 -1.617748
vt 1.574803 -3.192551
vt 1.574803 -1.617748
vt 1.968504 -2.40515
vt -1.181102 -1.617748
vt -1.181102 -3.192551
vt -1.574803 -1.617748
vt -1.574803 -3.192551
vt -1.968504 -2.40515
vt 1.574803 2.08269
vt 1.181102 2.08269
vt 1.574803 2.870091
vt 1.181102 2.870091
vt 3.500362 1.472684
vt 3.500362 2.586238
vt 7.831071 1.472684
vt 7.831071 2.586238
vt -1.181102 2.08269
vt -1.574803 2.08269
vt -1.181102 2.870091
vt -1.574803 2.870091
vt -3.500362 2.586238
vt -3.500362 1.472684
vt -7.831071 2.586238
vt -7.831071 1.472684
vt 1.574803 2.476391
vt 0.3937008 2.476391
vt 1.574803 3.657493
vt -1.574803 3.657493
vt 0.7874016 4.444895
vt -0.7874016 4.444895
vt -1.574803 2.476391
vt -0.3937008 2.476391
vt 0.7874016 -5.397625
vt -0.7874016 -5.397625
vt 1.574803 -4.610223
vt -1.574803 -4.610223
vt 1.574803 1.688989
vt 0.3937008 1.688989
vt -1.574803 1.688989
vt -0.3937008 1.688989
vt 0.3937008 7.524192
vt 0.3937008 8.943701
vt 1.574803 7.524192
vt 1.574803 8.943701
vt -1.574803 7.524192
vt -1.574803 8.943701
vt -0.3937008 7.524192
vt -0.3937008 8.943701
vt 0.04294504 0.1141859
vt 0.04294504 -1.854318
vt -0.9413069 0.1141859
vt -0.9413069 -0.870066
vt 1.181102 3.565979
vt 1.181102 -0.04294504
vt -1.181102 3.565979
vt -1.181102 -0.04294504
vt 1.181102 -0.870066
vt -1.181102 -0.870066
vt 1.181102 0.1141859
vt -1.181102 0.1141859
vt -1.181102 3.237895
vt 1.181102 3.237895
vt -1.181102 0.9413069
vt 1.181102 0.9413069
vt 0.9413069 -0.870066
vt -0.04294504 -1.854318
vt -0.04294504 0.1141859
vt 0.9413069 0.1141859
vt -1.181102 3.500362
vt -1.181102 7.831071
vt -0.5905512 3.500362
vt 1.181102 7.831071
vt 0.5905512 3.500362
vt 1.181102 3.500362
vt -1.181102 4.838595
vt -1.968504 4.051194
vt -1.968504 4.838595
vt 1.968504 4.838595
vt 1.968504 4.051194
vt 1.181102 4.838595
vt -3.031573 2.870091
vt -2.151231 2.870091
vt -3.031573 2.08269
vt -2.151231 2.08269
vt -1.27089 2.870091
vt -1.27089 2.08269
vt -7.831071 4.051194
vt -3.500362 4.051194
vt -7.831071 0.1141859
vt 5.161055 4.838595
vt 5.161055 -5.791326
vt 2.011449 -5.791326
vt 0.04294504 -3.822822
vt 3.031573 2.870091
vt 3.031573 2.08269
vt 2.151231 2.870091
vt 2.151231 2.08269
vt 1.968504 -5.517395
vt -1.968504 -5.517395
vt 1.968504 -2.73351
vt -1.968504 -2.73351
vt -5.161055 -5.791326
vt -5.161055 4.838595
vt -2.011449 -5.791326
vt 3.500362 4.051194
vt -0.04294504 -3.822822
vt 7.831071 0.1141859
vt 7.831071 4.051194
vt 1.27089 2.870091
vt 1.27089 2.08269
vt 1.968504 -2.011449
vt 1.968504 -5.161055
vt -1.968504 -2.011449
vt -1.968504 -5.161055
vt 1.181102 0.1141859
vt 1.968504 0.1141859
vt 1.181102 -1.854318
vt 1.968504 -3.822822
vt -1.968504 -3.822822
vt -1.181102 -1.854318
vt -1.968504 0.1141859
vt -1.181102 0.1141859
vt -1.968504 -0.04294504
vt -1.968504 7.831071
vt -1.181102 2.909811
vt -1.181102 6.846819
vt 1.181102 2.909811
vt 1.968504 -0.04294504
vt 1.181102 6.846819
vt 1.968504 7.831071
vt -1.968504 3.500362
vt -0.5905512 -2.40515
vt 0.5905512 -2.40515
vt 1.968504 3.500362
vt 1.574803 -7.505095
vt -1.574803 -7.505095
vt 1.574803 -6.717694
vt -1.574803 -6.717694
vt -4.494137 -5.877393
vt -4.66627 -6.645749
vt -8.92593 -4.884545
vt -9.098063 -5.652902
vt 1.574803 3.10058
vt -1.574803 3.10058
vt 1.574803 7.642224
vt -1.574803 7.642224
vt 4.494137 -5.877393
vt 8.92593 -4.884545
vt 4.66627 -6.645749
vt 9.098063 -5.652902
vt 1.968504 -5.791326
vt -1.968504 -5.791326
vt -1.181102 3.494281
vt -1.181102 7.248523
vt 1.181102 3.494281
vt 1.181102 7.248523

usemtl dark

f 3/3/1 2/2/1 1/1/1
f 2/2/1 3/3/1 4/4/1
f 7/7/2 6/6/3 5/5/2
f 6/6/3 7/7/2 8/8/3
f 6/6/3 8/8/3 9/9/4
f 9/9/4 8/8/3 10/10/4
f 13/13/6 12/12/5 11/11/5
f 12/12/5 13/13/6 14/14/6
f 12/17/7 15/16/7 11/15/7
f 15/16/7 12/17/7 16/18/7
f 19/21/8 18/20/9 17/19/8
f 18/20/9 19/21/8 13/22/6
f 13/22/6 19/21/8 14/23/6
f 14/23/6 19/21/8 20/24/9
f 16/27/10 10/26/4 15/25/10
f 10/26/4 16/27/10 9/28/4
f 19/31/8 22/30/11 21/29/11
f 22/30/11 19/31/8 17/32/8
f 21/35/12 24/34/12 23/33/12
f 24/34/12 21/35/12 22/36/12
f 27/33/13 26/36/13 25/34/13
f 26/36/13 27/33/13 28/35/13
f 28/39/14 5/38/2 26/37/14
f 5/38/2 28/39/14 7/40/2
f 31/43/12 30/42/12 29/41/12
f 30/42/12 31/43/12 32/44/12
f 31/47/15 33/46/15 32/45/15
f 33/46/15 31/47/15 34/48/15
f 36/51/7 30/50/7 35/49/7
f 30/50/7 36/51/7 29/52/7
f 33/55/13 36/54/13 35/53/13
f 36/54/13 33/55/13 34/56/13
f 39/46/7 38/47/7 37/48/7
f 38/47/7 39/46/7 40/45/7
f 41/55/12 38/54/12 40/53/12
f 38/54/12 41/55/12 42/56/12
f 43/43/13 39/42/13 37/41/13
f 39/42/13 43/43/13 44/44/13
f 41/50/15 43/51/15 42/52/15
f 43/51/15 41/50/15 44/49/15
f 47/59/16 46/58/16 45/57/16
f 46/58/16 47/59/16 48/60/16
f 48/60/16 47/59/16 49/61/16
f 49/61/16 47/59/16 50/62/16
f 53/65/17 52/64/17 51/63/17
f 54/66/17 52/64/17 53/65/17
f 55/67/17 52/64/17 54/66/17
f 52/64/17 55/67/17 56/68/17
f 49/71/7 53/70/7 51/69/7
f 53/70/7 49/71/7 50/72/7
f 47/70/15 55/73/15 54/72/15
f 55/73/15 47/70/15 45/74/15
f 59/77/17 58/76/17 57/75/17
f 58/76/17 59/77/17 3/78/17
f 58/76/17 3/78/17 1/79/17
f 58/76/17 1/79/17 60/80/17
f 57/83/1 61/82/1 59/81/1
f 61/82/1 57/83/1 62/84/1
f 63/87/18 58/86/18 60/85/18
f 58/86/18 63/87/18 64/88/18
f 47/91/12 53/90/12 50/89/12
f 53/90/12 47/91/12 54/92/12
f 64/95/16 61/94/16 62/93/16
f 61/94/16 64/95/16 4/96/16
f 4/96/16 64/95/16 2/97/16
f 2/97/16 64/95/16 63/98/16
f 44/101/16 65/100/16 39/99/16
f 65/100/16 44/101/16 41/102/16
f 66/103/16 39/99/16 65/100/16
f 65/100/16 41/102/16 67/104/16
f 39/99/16 66/103/16 40/105/16
f 67/104/16 41/102/16 68/106/16
f 40/105/16 66/103/16 68/106/16
f 40/105/16 68/106/16 41/102/16
f 33/109/17 69/108/17 32/107/17
f 69/108/17 33/109/17 35/110/17
f 32/107/17 69/108/17 70/111/17
f 35/110/17 71/112/17 69/108/17
f 32/107/17 70/111/17 72/113/17
f 71/112/17 35/110/17 30/114/17
f 71/112/17 30/114/17 72/113/17
f 72/113/17 30/114/17 32/107/17

usemtl darkMetal

f 27/117/16 7/116/16 28/115/16
f 27/117/16 8/118/16 7/116/16
f 27/117/16 10/119/16 8/118/16
f 73/120/16 10/119/16 27/117/16
f 74/121/16 10/119/16 73/120/16
f 74/121/16 15/122/16 10/119/16
f 75/123/16 15/122/16 74/121/16
f 15/122/16 75/123/16 11/124/16
f 76/125/16 11/124/16 75/123/16
f 76/125/16 13/126/16 11/124/16
f 76/125/16 18/127/16 13/126/16
f 76/125/16 17/128/16 18/127/16
f 24/129/16 17/128/16 76/125/16
f 17/128/16 24/129/16 22/130/16
f 25/133/17 78/132/17 77/131/17
f 78/132/17 25/133/17 16/134/17
f 16/134/17 25/133/17 9/135/17
f 9/135/17 25/133/17 6/136/17
f 6/136/17 25/133/17 5/137/17
f 5/137/17 25/133/17 26/138/17
f 12/139/17 78/132/17 16/134/17
f 12/139/17 79/140/17 78/132/17
f 12/139/17 80/141/17 79/140/17
f 14/142/17 80/141/17 12/139/17
f 20/143/17 80/141/17 14/142/17
f 19/144/17 80/141/17 20/143/17
f 21/145/17 80/141/17 19/144/17
f 80/141/17 21/145/17 23/146/17
f 78/16/15 75/17/15 74/18/15
f 75/17/15 78/16/15 79/15/15
f 76/33/13 79/36/13 80/34/13
f 79/36/13 76/33/13 75/35/13
f 78/35/12 73/34/12 77/33/12
f 73/34/12 78/35/12 74/36/12
f 83/149/15 82/148/15 81/147/15
f 82/148/15 83/149/15 84/150/15
f 87/152/17 86/64/17 85/151/17
f 88/153/17 86/64/17 87/152/17
f 89/154/17 86/64/17 88/153/17
f 86/64/17 89/154/17 90/68/17
f 93/156/7 92/149/7 91/155/7
f 92/149/7 93/156/7 94/147/7
f 97/158/16 96/58/16 95/157/16
f 96/58/16 97/158/16 98/60/16
f 98/60/16 97/158/16 99/159/16
f 99/159/16 97/158/16 100/160/16
f 87/163/19 84/162/19 83/161/19
f 84/162/19 87/163/19 85/164/19
f 81/167/20 99/166/20 100/165/20
f 99/166/20 81/167/20 82/168/20
f 89/171/21 94/170/21 93/169/21
f 94/170/21 89/171/21 88/172/21
f 91/175/22 97/174/22 95/173/22
f 97/174/22 91/175/22 92/176/22

usemtl metal

f 101/179/7 70/178/7 69/177/7
f 70/178/7 101/179/7 102/180/7
f 102/180/7 101/179/7 103/181/7
f 104/184/15 71/183/15 72/182/15
f 71/183/15 104/184/15 105/185/15
f 105/185/15 104/184/15 106/186/15
f 101/189/12 71/188/12 105/187/12
f 71/188/12 101/189/12 69/190/12
f 109/193/21 108/192/21 107/191/21
f 108/192/21 109/193/21 110/194/21
f 65/197/12 111/196/12 66/195/12
f 111/196/12 65/197/12 112/198/12
f 114/189/13 68/188/13 113/187/13
f 68/188/13 114/189/13 67/190/13
f 70/197/13 104/196/13 72/195/13
f 104/196/13 70/197/13 102/198/13
f 117/201/22 116/200/22 115/199/22
f 116/200/22 117/201/22 118/202/22
f 113/180/15 111/179/15 119/181/15
f 111/179/15 113/180/15 68/178/15
f 111/179/15 68/178/15 66/177/15
f 112/185/7 114/184/7 120/186/7
f 114/184/7 112/185/7 65/183/7
f 114/184/7 65/183/7 67/182/7
f 89/205/12 46/204/12 90/203/12
f 46/204/12 89/205/12 45/91/12
f 45/91/12 89/205/12 55/92/12
f 95/206/12 55/92/12 89/205/12
f 95/206/12 89/205/12 93/207/12
f 95/206/12 93/207/12 91/208/12
f 96/209/12 55/92/12 95/206/12
f 55/92/12 96/209/12 56/210/12
f 85/213/12 82/212/12 84/211/12
f 82/212/12 85/213/12 99/214/12
f 99/214/12 85/213/12 49/89/12
f 49/89/12 85/213/12 86/215/12
f 49/89/12 86/215/12 48/216/12
f 51/90/12 99/214/12 49/89/12
f 99/214/12 51/90/12 98/217/12
f 98/217/12 51/90/12 52/218/12
f 86/221/23 46/220/23 48/219/23
f 46/220/23 86/221/23 90/222/23
f 52/225/23 96/224/23 98/223/23
f 96/224/23 52/225/23 56/226/23
f 123/229/16 122/228/16 121/227/16
f 122/228/16 123/229/16 124/230/16
f 122/228/16 124/230/16 4/96/16
f 4/96/16 124/230/16 61/94/16
f 3/233/15 122/232/15 4/231/15
f 122/232/15 3/233/15 125/234/15
f 123/237/13 126/236/13 124/235/13
f 126/236/13 123/237/13 127/238/13
f 124/241/7 59/240/7 61/239/7
f 59/240/7 124/241/7 126/242/7
f 126/243/17 3/78/17 59/77/17
f 126/243/17 125/244/17 3/78/17
f 125/244/17 126/243/17 128/245/17
f 127/246/17 128/245/17 126/243/17
f 27/249/7 117/248/7 115/247/7
f 117/248/7 27/249/7 110/250/7
f 110/250/7 27/249/7 25/251/7
f 110/250/7 25/251/7 108/252/7

usemtl yellow

f 129/255/13 107/254/13 108/253/13
f 115/258/13 116/257/13 130/256/13
f 106/261/24 102/260/24 103/259/24
f 102/260/24 106/261/24 104/262/24
f 105/262/25 103/263/25 101/260/25
f 103/263/25 105/262/25 106/264/25
f 131/267/16 116/266/16 118/265/16
f 131/267/16 38/105/16 116/266/16
f 116/266/16 38/105/16 130/117/16
f 132/227/16 38/105/16 131/267/16
f 42/102/16 130/117/16 38/105/16
f 43/101/16 130/117/16 42/102/16
f 43/101/16 133/268/16 130/117/16
f 133/268/16 43/101/16 134/269/16
f 37/99/16 134/269/16 43/101/16
f 132/227/16 37/99/16 38/105/16
f 134/269/16 37/99/16 135/270/16
f 135/270/16 37/99/16 132/227/16
f 136/271/16 135/270/16 132/227/16
f 114/274/26 119/273/26 120/272/26
f 119/273/26 114/274/26 113/275/26
f 136/278/27 137/277/27 135/276/27
f 137/277/27 136/278/27 138/279/27
f 137/282/17 140/281/17 139/280/17
f 140/281/17 137/282/17 36/110/17
f 140/281/17 36/110/17 34/109/17
f 34/109/17 129/133/17 140/281/17
f 129/133/17 34/109/17 31/107/17
f 129/133/17 31/107/17 29/114/17
f 129/133/17 29/114/17 107/283/17
f 36/110/17 137/282/17 141/245/17
f 36/110/17 141/245/17 29/114/17
f 141/245/17 137/282/17 138/284/17
f 29/114/17 141/245/17 142/285/17
f 29/114/17 142/285/17 107/283/17
f 107/283/17 142/285/17 109/286/17
f 120/287/28 111/275/28 112/274/28
f 111/275/28 120/287/28 119/288/28
f 137/291/15 134/290/15 135/289/15
f 134/290/15 137/291/15 139/292/15
f 122/295/13 132/294/13 121/293/13
f 122/295/13 136/296/13 132/294/13
f 136/296/13 122/295/13 138/297/13
f 125/298/13 138/297/13 122/295/13
f 138/297/13 125/298/13 141/299/13
f 141/299/13 125/298/13 128/300/13
f 118/257/13 142/299/13 131/294/13
f 142/299/13 118/257/13 109/254/13
f 109/254/13 118/257/13 117/258/13
f 109/254/13 117/258/13 110/253/13
f 128/234/15 142/302/15 141/301/15
f 127/241/15 142/302/15 128/234/15
f 57/303/15 142/302/15 127/241/15
f 123/242/15 57/303/15 127/241/15
f 58/304/15 142/302/15 57/303/15
f 57/303/15 123/242/15 62/305/15
f 121/232/15 62/305/15 123/242/15
f 132/306/15 62/305/15 121/232/15
f 64/307/15 142/302/15 58/304/15
f 62/305/15 132/306/15 64/307/15
f 64/307/15 131/308/15 142/302/15
f 131/308/15 64/307/15 132/306/15
f 133/292/7 115/247/7 130/309/7
f 115/247/7 133/292/7 24/310/7
f 24/310/7 133/292/7 140/290/7
f 115/247/7 24/310/7 76/15/7
f 24/310/7 140/290/7 23/311/7
f 73/16/7 115/247/7 76/15/7
f 115/247/7 73/16/7 27/249/7
f 80/17/7 73/16/7 76/15/7
f 73/16/7 80/17/7 77/18/7
f 77/18/7 80/17/7 23/311/7
f 77/18/7 23/311/7 25/251/7
f 23/311/7 140/290/7 25/251/7
f 25/251/7 140/290/7 108/252/7
f 108/252/7 140/290/7 129/312/7
f 145/315/29 144/314/29 143/313/29
f 144/314/29 145/315/29 146/316/29
f 149/313/30 148/316/30 147/314/30
f 148/316/30 149/313/30 150/315/30
f 150/319/16 144/318/16 146/317/16
f 144/318/16 150/319/16 149/320/16
f 149/323/31 143/322/31 144/321/31
f 143/322/31 149/323/31 147/324/31
f 143/327/17 148/326/17 145/325/17
f 148/326/17 143/327/17 147/328/17
f 87/213/12 140/256/12 88/205/12
f 88/205/12 140/256/12 94/207/12
f 94/207/12 140/256/12 92/208/12
f 87/213/12 139/329/12 140/256/12
f 83/211/12 139/329/12 87/213/12
f 133/255/12 92/208/12 140/256/12
f 133/255/12 97/206/12 92/208/12
f 133/255/12 100/214/12 97/206/12
f 139/329/12 83/211/12 134/330/12
f 134/330/12 100/214/12 133/255/12
f 81/212/12 134/330/12 83/211/12
f 100/214/12 134/330/12 81/212/12
f 146/322/32 2/331/32 150/324/32
f 2/331/32 146/322/32 145/321/32
f 63/332/32 150/324/32 2/331/32
f 2/331/32 145/321/32 1/333/32
f 150/324/32 63/332/32 148/323/32
f 1/333/32 145/321/32 60/334/32
f 148/323/32 63/332/32 60/334/32
f 148/323/32 60/334/32 145/321/32

usemtl _defaultMat

f 59/97/1 4/95/1 3/98/1
f 4/97/1 59/95/1 61/98/1
f 77/250/7 27/251/7 73/252/7
f 27/250/7 77/251/7 25/252/7

